<svg
  width="256"
  height="256"
  viewBox="0 0 256 256"
  fill="none"
  xmlns="http://www.w3.org/2000/svg"
>
  <path
    d="M89.223 200.712C83.134 199.16 77.0945 196.839 71.203 193.673L41.496 211.027L23.8175 193.348L39.8785 163.342C36.7616 157.866 34.3153 152.034 32.5925 145.973L0 137.12V112.075L32.4185 102.553C34.0825 96.5095 36.4635 90.6355 39.5685 85.079L23.0805 55.601L40.76 37.9225L70.474 54.6135C76.1425 51.4935 81.956 49.155 87.82 47.542L96.9885 14.105H122.034L131.469 48.243C136.974 49.9303 142.283 52.1998 147.307 55.013L178.508 37.1855L196.186 54.8645L178.449 86.361C183 94.726 186.099 104.092 187.317 114.221H156.03C149.732 83.032 113.716 65.3205 84.515 82.1555C52.398 100.671 52.398 147.211 84.515 165.727C93.2965 170.789 102.694 172.723 111.715 172.11V211.851H92.43L89.223 200.712Z"
    fill="#4B32C3"
  />
  <path
    d="M213.449 204.26L185.763 220.243L158.078 204.26V172.291L185.763 156.307L213.449 172.291V204.26ZM252.164 191.965L221.529 244.911C220.417 246.838 218.361 247.794 216.136 247.794H154.864C152.639 247.794 150.582 246.809 149.47 244.881L118.835 192.022C117.722 190.094 117.722 187.661 118.835 185.734L149.47 132.554C150.582 130.627 152.639 129.206 154.864 129.206H216.136C218.361 129.206 220.417 130.627 221.53 132.554L252.165 185.851C253.278 187.778 253.278 190.038 252.164 191.964M226.797 212.716V165.218L185.481 141.4L144.21 165.212V212.716L185.52 236.532L226.797 212.716Z"
    fill="#4B32C3"
  />
</svg>
